# xmcd
#
# Track frame offsets: 
#        150
#        13443
#        21930
#        44289
#        60571
#        71314
#        82104
#        96359
#        105653
#        119156
#        137000
#        142700
#        156419
#        175285
#        187266
#
# Disc length: 2703 seconds
#
# Revision: 1
# Processed by: cddbd v1.5.2PL0 Copyright (c) Steve Scherf et al.
# Submitted via: ExactAudioCopy v0.95a4
#
DISCID=db0a8d0f
DTITLE=Various Artist - Gloryland - 30 Bluegrass Gospel Classics [CD 2)
DYEAR=2009
DGENRE=Bluegrass
TTITLE0=Larry Sparks - I've Just Seen The Rock Of Ages
TTITLE1=Ralph Stanley - Angel Band
TTITLE2=J. D. Crowe And The New South - The Model Church
TTITLE3=Marshall Family - I Just Want To Thank You Lord
TTITLE4=The Country Gentlemen - Bright Morning Star (Previously Unissu
TTITLE4=ed)
TTITLE5=Del McCoury And The Dixie Pals - Wait A Little Longer, Please 
TTITLE5=Jesus
TTITLE6=Rhonda Vincent And The Sally Mountain Show - First Step To Hea
TTITLE6=ven
TTITLE7=Appalachian Express - I'll Meet You In The Morning
TTITLE8=The Seldom Scene - Heaven
TTITLE9=Jim Eanes - When They Ring Those Golden Bells
TTITLE10=Don Reno And Benny Martin - He Will Set Your Fields On Fire
TTITLE11=The Stanley Brothers - Precious Memories
TTITLE12=Paul Williams - Whispering Hope
TTITLE13=Forbes Family - Talk About Suffering
TTITLE14=Lost And Found - What A Friend We Have In Jesus
EXTD=Year: 2009 [CD 2 from 2)
EXTT0=
EXTT1=
EXTT2=
EXTT3=
EXTT4=
EXTT5=
EXTT6=
EXTT7=
EXTT8=
EXTT9=
EXTT10=
EXTT11=
EXTT12=
EXTT13=
EXTT14=
PLAYORDER=
